<svg width="21" height="22" viewBox="0 0 21 22" fill="none" xmlns="http://www.w3.org/2000/svg">
<path d="M2.47689 8.84C2.51712 8.33881 2.74464 7.87115 3.11417 7.53017C3.48369 7.18918 3.96808 6.9999 4.47089 7H16.5289C17.0317 6.9999 17.5161 7.18918 17.8856 7.53017C18.2551 7.87115 18.4827 8.33881 18.5229 8.84L19.3259 18.84C19.348 19.1152 19.3129 19.392 19.2227 19.6529C19.1326 19.9139 18.9894 20.1533 18.8022 20.3563C18.615 20.5592 18.3878 20.7211 18.1349 20.8319C17.882 20.9427 17.609 20.9999 17.3329 21H3.66689C3.39081 20.9999 3.11774 20.9427 2.86487 20.8319C2.612 20.7211 2.3848 20.5592 2.19759 20.3563C2.01037 20.1533 1.86719 19.9139 1.77706 19.6529C1.68693 19.392 1.6518 19.1152 1.67389 18.84L2.47689 8.84V8.84Z" stroke="url(#paint0_linear_52_274)" stroke-width="1.4" stroke-linecap="round" stroke-linejoin="round"/>
<path d="M14.5001 10V5C14.5001 3.93913 14.0787 2.92172 13.3285 2.17157C12.5784 1.42143 11.561 1 10.5001 1C9.43926 1 8.42184 1.42143 7.67169 2.17157C6.92155 2.92172 6.50012 3.93913 6.50012 5V10" stroke="url(#paint1_linear_52_274)" stroke-width="1.4" stroke-linecap="round" stroke-linejoin="round"/>
<defs>
<linearGradient id="paint0_linear_52_274" x1="10.4999" y1="7" x2="10.4999" y2="21" gradientUnits="userSpaceOnUse">
<stop stop-color="#0390FB"/>
<stop offset="1" stop-color="#0E36C0"/>
</linearGradient>
<linearGradient id="paint1_linear_52_274" x1="10.5001" y1="1" x2="10.5001" y2="10" gradientUnits="userSpaceOnUse">
<stop stop-color="#0390FB"/>
<stop offset="1" stop-color="#0E36C0"/>
</linearGradient>
</defs>
</svg>
