<svg width="19" height="20" viewBox="0 0 19 20" fill="none" xmlns="http://www.w3.org/2000/svg">
<path d="M7.5 12H11.5V19H7.5V12Z" fill="#87848A"/>
<path d="M17.9201 8.17971L10.2101 0.299705C10.1172 0.205976 10.0066 0.131582 9.88469 0.0808132C9.76283 0.0300445 9.63213 0.00390625 9.50012 0.00390625C9.3681 0.00390625 9.2374 0.0300445 9.11554 0.0808132C8.99368 0.131582 8.88308 0.205976 8.79012 0.299705L1.08012 8.1897C0.893552 8.37777 0.74621 8.60103 0.646643 8.84651C0.547077 9.092 0.49727 9.35481 0.500115 9.61971V17.9997C0.499341 18.5116 0.694889 19.0043 1.04649 19.3764C1.39809 19.7485 1.87898 19.9716 2.39012 19.9997H5.50012V10.9997C5.50012 10.7345 5.60547 10.4801 5.79301 10.2926C5.98055 10.1051 6.2349 9.99971 6.50012 9.99971H12.5001C12.7653 9.99971 13.0197 10.1051 13.2072 10.2926C13.3948 10.4801 13.5001 10.7345 13.5001 10.9997V19.9997H16.6101C17.1213 19.9716 17.6021 19.7485 17.9537 19.3764C18.3053 19.0043 18.5009 18.5116 18.5001 17.9997V9.61971C18.5009 9.08264 18.2929 8.56629 17.9201 8.17971Z" fill="#87848A"/>
</svg>
