<svg width="24" height="20" viewBox="0 0 24 20" fill="none" xmlns="http://www.w3.org/2000/svg">
<path d="M20.6887 4.44444V4.64444H20.8887C22.0038 4.64444 22.9109 5.55157 22.9109 6.66667V17.7778C22.9109 18.8929 22.0038 19.8 20.8887 19.8H4.222C3.59066 19.8 2.8028 19.5895 2.17705 19.0937C1.55852 18.6035 1.08867 17.8276 1.08867 16.6667V3.33333C1.08867 1.60601 2.49468 0.2 4.222 0.2H18.6664C19.7815 0.2 20.6887 1.10712 20.6887 2.22222V4.44444ZM4.222 2.02222V2.02202L4.21307 2.02242C3.87553 2.03752 3.55683 2.18223 3.32332 2.42642C3.08981 2.67061 2.95949 2.99546 2.95949 3.33333C2.95949 3.6712 3.08981 3.99605 3.32332 4.24024C3.55683 4.48444 3.87553 4.62915 4.21307 4.64424L4.21306 4.64444H4.222H18.6664H18.8664V4.44444V2.22222V2.02222H18.6664H4.222ZM20.8887 17.9778H21.0887V17.7778V6.66667V6.46667H20.8887H4.222C3.85743 6.46667 3.51053 6.39237 3.17862 6.27293L2.91089 6.17658V6.46111V16.6667C2.91089 17.1647 3.08428 17.5034 3.35987 17.7121C3.62471 17.9127 3.95466 17.9706 4.23014 17.9777L4.23014 17.9778H4.23534H20.8887Z" fill="url(#paint0_linear_106_207)" stroke="white" stroke-width="0.4"/>
<defs>
<linearGradient id="paint0_linear_106_207" x1="11.9998" y1="0" x2="11.9998" y2="20" gradientUnits="userSpaceOnUse">
<stop stop-color="#0490FC"/>
<stop offset="1" stop-color="#0E3BC3"/>
</linearGradient>
</defs>
</svg>
